<?xml version="1.0" encoding="UTF-8" standalone="no"?><!DOCTYPE svg PUBLIC "-//W3C//DTD SVG 1.1//EN" "http://www.w3.org/Graphics/SVG/1.1/DTD/svg11.dtd"><svg width="100%" height="100%" viewBox="0 0 1712 1768" version="1.1" xmlns="http://www.w3.org/2000/svg" xmlns:xlink="http://www.w3.org/1999/xlink" xml:space="preserve" xmlns:serif="http://www.serif.com/" style="fill-rule:evenodd;clip-rule:evenodd;stroke-linejoin:round;stroke-miterlimit:2;"><rect id="Artboard2" x="0" y="0" width="1711.81" height="1767.52" style="fill:none;"/><g><path d="M481.072,321.438c-119.965,134.352 -46.976,333.931 57.253,408.572c41.365,29.623 105.601,40.942 138.741,25.687c-33.972,56.597 -78.03,144.751 11.464,263.825c91.661,121.957 134.603,465.505 -167.905,558.769c-159.627,49.214 -304.888,25.866 -385.224,-88.016c-36.588,-51.866 -62.129,-116.32 -26.466,-179.877c17.941,-31.974 108.382,-114.331 162.547,-44.742c56.126,72.111 -14.954,125.593 -66.753,140.219c161.623,204.31 420.031,-58.572 297.81,-254.404c-55.736,-89.306 -111.253,-129.24 -236.683,-118.403c22.538,-8.138 105.029,-141.708 -16.591,-332.813c-73.954,-116.205 -68.178,-414.621 157.053,-498.183c156.611,-58.103 304.888,-25.865 385.224,88.017c36.588,51.866 53.179,112.07 26.466,179.877c-14.582,37.012 -105.623,127.513 -166.164,48.359c-55.514,-72.583 18.571,-129.211 70.37,-143.836c-78.197,-116.606 -188.035,-112.527 -241.142,-53.051Z" style="fill:#fff;"/><path d="M1019.93,758.449c14.309,4.498 32.691,5.132 52.056,2.376c9.971,-1.27 19.672,-3.497 29.092,-6.523c18.073,-5.533 35.682,-13.754 50.396,-24.292c2.145,-1.536 4.278,-3.126 6.395,-4.766c100.757,-78.063 168.353,-272.219 50.858,-403.806c-53.107,-59.476 -162.945,-63.555 -241.142,53.051c51.799,14.625 125.884,71.253 70.37,143.836c-60.541,79.154 -151.582,-11.347 -166.164,-48.359c-26.713,-67.807 -10.122,-128.011 26.466,-179.877c80.336,-113.882 228.613,-146.12 385.224,-88.017c117.115,43.451 174.894,144.992 192.982,248.802c0.377,2.163 0.737,4.328 1.08,6.493c12.863,81.265 1.685,163.206 -24.128,219.098c-0.525,1.137 -1.056,2.264 -1.593,3.379c-129.258,129.838 -289.98,142.906 -438.252,77.25c-0.04,-0.067 -0.079,-0.134 -0.119,-0.2c-0.24,-0.401 -0.479,-0.8 -0.718,-1.197c2.26,1.04 4.665,1.957 7.197,2.752Z" style="fill:#fff;"/><path d="M958.547,1103.27c12.776,-163.995 -126.155,-131.626 -149.004,-137.338c-10.313,-47.279 129.413,-98.18 242.785,-60.146c35.006,11.744 67.499,31.967 92.287,63.394c38.463,48.764 54.348,89.801 29.983,182.29c-4.283,16.256 -7.503,32.37 -9.678,48.229c-14.61,106.534 17.942,201.529 92.308,250.725c3.208,2.122 6.495,4.159 9.859,6.109c27.373,15.862 57.762,24.511 88.747,23.237c44.206,-1.816 89.626,-23.828 129.234,-73.896c-51.799,-14.626 -122.879,-68.108 -66.753,-140.219c54.165,-69.589 144.606,12.768 162.547,44.742c35.663,63.557 10.122,128.011 -26.466,179.877c-65.188,92.407 -173.122,125.205 -296.794,107.996c-28.739,-3.999 -58.329,-10.699 -88.43,-19.98c-146.395,-45.134 -211.888,-148.884 -230.107,-257.769c-12.712,-75.973 -2.41,-154.445 19.482,-217.251Z" style="fill:#fff;"/><path d="M1267.09,1456.53c-3.333,-1.931 -6.62,-3.969 -9.859,-6.109c3.208,2.122 6.495,4.159 9.859,6.109Z" style="fill:#fff;"/><circle cx="1527.48" cy="330.728" r="66.465" style="fill:#fff;"/><circle cx="1446.09" cy="195.086" r="66.465" style="fill:#fff;"/></g></svg>