<?xml version="1.0" encoding="UTF-8" standalone="no"?><!DOCTYPE svg PUBLIC "-//W3C//DTD SVG 1.1//EN" "http://www.w3.org/Graphics/SVG/1.1/DTD/svg11.dtd"><svg width="100%" height="100%" viewBox="0 0 2456 2400" version="1.1" xmlns="http://www.w3.org/2000/svg" xmlns:xlink="http://www.w3.org/1999/xlink" xml:space="preserve" xmlns:serif="http://www.serif.com/" style="fill-rule:evenodd;clip-rule:evenodd;stroke-linejoin:round;stroke-miterlimit:2;"><rect id="Artboard1" x="0" y="0" width="2455.57" height="2917.41" style="fill:none;"/><g><path d="M648.074,323.705c-190.125,212.927 -74.449,529.227 90.736,647.52c65.558,46.948 167.361,64.887 219.882,40.709c-53.84,89.698 -123.665,229.408 18.168,418.12c145.269,193.283 213.325,737.75 -266.102,885.559c-252.983,77.996 -483.196,40.993 -610.517,-139.492c-57.985,-82.199 -98.463,-184.348 -41.943,-285.075c28.433,-50.673 171.767,-181.197 257.609,-70.908c88.951,114.283 -23.698,199.044 -105.792,222.223c256.147,323.798 665.681,-92.827 471.981,-403.189c-88.333,-141.536 -176.318,-204.824 -375.104,-187.649c35.719,-12.898 166.453,-224.585 -26.295,-527.454c-117.205,-184.167 -108.05,-657.107 248.904,-789.539c248.203,-92.084 483.197,-40.992 610.517,139.493c57.986,82.198 84.28,177.612 41.944,285.075c-23.11,58.659 -167.395,202.087 -263.342,76.64c-87.981,-115.031 29.431,-204.777 111.525,-227.956c-123.93,-184.801 -298.005,-178.337 -382.171,-84.077Z" style="fill:#fff;"/><path d="M1502.07,1016.3c22.679,7.128 51.811,8.133 82.501,3.765c15.802,-2.012 31.178,-5.543 46.106,-10.338c28.643,-8.769 56.55,-21.798 79.87,-38.499c3.4,-2.434 6.779,-4.953 10.135,-7.553c159.682,-123.718 266.812,-431.423 80.601,-639.967c-84.166,-94.26 -258.241,-100.724 -382.171,84.077c82.094,23.179 199.506,112.925 111.525,227.956c-95.947,125.447 -240.232,-17.981 -263.342,-76.64c-42.336,-107.463 -16.042,-202.877 41.944,-285.075c127.32,-180.485 362.314,-231.577 610.517,-139.493c185.608,68.862 277.179,229.788 305.846,394.31c0.597,3.429 1.168,6.859 1.711,10.29c20.385,128.792 2.671,258.656 -38.239,347.236c-0.832,1.802 -1.674,3.587 -2.525,5.354c-204.852,205.773 -459.571,226.482 -694.558,122.428c-0.063,-0.105 -0.126,-0.211 -0.189,-0.316c-0.379,-0.635 -0.758,-1.268 -1.137,-1.898c3.582,1.649 7.393,3.102 11.405,4.363Z" style="fill:#fff;"/><path d="M1404.79,1562.78c20.247,-259.905 -199.935,-208.605 -236.148,-217.658c-16.344,-74.93 205.099,-155.6 384.775,-95.322c55.479,18.612 106.976,50.663 146.261,100.47c60.957,77.282 86.132,142.32 47.517,288.899c-6.787,25.764 -11.89,51.302 -15.337,76.435c-23.156,168.839 28.435,319.392 146.292,397.358c5.086,3.364 10.294,6.593 15.625,9.682c43.382,25.139 91.544,38.846 140.65,36.828c70.06,-2.879 142.043,-37.763 204.815,-117.114c-82.093,-23.179 -194.743,-107.94 -105.792,-222.223c85.842,-110.289 229.176,20.235 257.609,70.908c56.52,100.727 16.042,202.876 -41.943,285.075c-103.312,146.451 -274.371,198.431 -470.37,171.156c-45.548,-6.338 -92.443,-16.956 -140.147,-31.664c-232.014,-71.53 -335.808,-235.957 -364.683,-408.522c-20.147,-120.404 -3.82,-244.771 30.876,-344.308Z" style="fill:#fff;"/><path d="M1893.78,2122.65c-5.281,-3.06 -10.492,-6.29 -15.625,-9.682c5.086,3.364 10.294,6.593 15.625,9.682Z" style="fill:#fff;"/><circle cx="2306.46" cy="338.429" r="105.336" style="fill:#fff;"/><circle cx="2177.48" cy="123.458" r="105.336" style="fill:#fff;"/><path d="M107.254,2482.87l-0,-23.195l116.833,-0l97.689,382.731l24.545,0l-0,23.196l-126.652,-0l0,-23.196l28.472,0l-18.163,-71.327l-133.524,-0l-17.672,71.327l28.472,0l-0,23.196l-82.962,-0l-0,-23.196l24.545,0l91.798,-359.536l-33.381,0Zm55.471,24.936l-59.399,237.178l119.779,-0l-60.38,-237.178Z" style="fill:#fff;fill-rule:nonzero;"/><path d="M533.844,2478.23c-28.472,0 -50.072,17.397 -64.799,52.191c-14.727,34.407 -22.09,77.513 -22.09,129.317c-0,51.804 7.69,94.136 23.072,126.997c15.709,32.861 38.126,49.291 67.253,49.291c16.363,0 31.417,-4.059 45.162,-12.178c13.746,-8.118 24.054,-16.623 30.927,-25.515c7.2,-8.892 14.727,-20.103 22.581,-33.634l17.182,14.497c-15.709,29.768 -33.381,53.158 -53.017,70.168c-19.309,16.624 -44.181,24.935 -74.617,24.935c-45.49,0 -82.634,-20.296 -111.433,-60.889c-28.8,-40.592 -43.199,-91.043 -43.199,-151.353c-0,-60.309 14.399,-110.567 43.199,-150.773c28.799,-40.206 68.725,-60.309 119.779,-60.309c26.508,0 52.035,6.186 76.58,18.557c24.544,12.371 36.817,27.062 36.817,44.072c-0,6.572 -1.8,14.111 -5.4,22.616l-29.454,67.268l-17.672,-6.379l4.418,-35.954c1.309,-9.278 1.964,-18.17 1.964,-26.675c-0,-15.077 -6.219,-28.221 -18.655,-39.433c-12.436,-11.211 -28.635,-16.817 -48.598,-16.817Z" style="fill:#fff;fill-rule:nonzero;"/><path d="M748.366,2482.87l-0,-23.195l116.833,-0l97.689,382.731l24.545,0l-0,23.196l-126.652,-0l0,-23.196l28.472,0l-18.163,-71.327l-133.524,-0l-17.672,71.327l28.472,0l-0,23.196l-82.962,-0l0,-23.196l24.545,0l91.798,-359.536l-33.381,0Zm55.471,24.936l-59.398,237.178l119.779,-0l-60.381,-237.178Z" style="fill:#fff;fill-rule:nonzero;"/><path d="M1021.8,2459.67l132.542,-0c58.908,-0 106.525,18.943 142.851,56.829c36.327,37.5 54.49,86.212 54.49,146.134c-0,59.536 -18.163,108.248 -54.49,146.134c-36.326,37.887 -83.943,56.83 -142.851,56.83l-132.542,-0l-0,-23.196l39.271,0l0,-359.536l-39.271,0l-0,-23.195Zm132.542,23.195l-19.636,0l0,359.536l19.636,0c37.963,0 67.58,-16.044 88.852,-48.131c21.6,-32.474 32.4,-76.353 32.4,-131.637c-0,-55.283 -10.8,-98.969 -32.4,-131.056c-21.272,-32.474 -50.889,-48.712 -88.852,-48.712Z" style="fill:#fff;fill-rule:nonzero;"/><path d="M1626.09,2865.6l-220.413,-0l-0,-23.196l29.453,0l0,-359.536l-29.453,0l-0,-23.195l210.595,-0c7.199,-0 12.436,0.386 15.708,1.159c3.6,0.387 6.873,2.513 9.818,6.379c2.946,3.48 4.418,9.085 4.418,16.817l-13.254,97.423l-19.145,-0l-9.818,-57.41c-2.945,-17.397 -8.509,-28.608 -16.69,-33.634c-7.855,-5.026 -22.582,-7.539 -44.181,-7.539l-34.363,0l0,198.325l112.906,-0l0,26.095l-112.906,0l0,135.116l44.181,0c21.272,0 35.835,-2.513 43.69,-7.539c8.181,-5.025 13.908,-16.237 17.181,-33.634l9.818,-51.61l19.145,-0l13.254,91.623c0,7.732 -1.472,13.531 -4.418,17.397c-2.945,3.48 -6.218,5.606 -9.818,6.379c-3.272,0.387 -8.509,0.58 -15.708,0.58Z" style="fill:#fff;fill-rule:nonzero;"/><path d="M1704.14,2482.87l0,-23.195l108.489,-0l89.343,347.357l84.434,-347.357l111.434,-0l0,23.195l-33.381,0l17.672,359.536l29.454,0l0,23.196l-131.56,-0l-0,-23.196l27.981,0l-15.218,-287.049l-75.598,310.245l-74.126,-0l-80.016,-309.665l-13.745,286.469l28.472,0l-0,23.196l-87.38,-0l0,-23.196l29.454,0l17.181,-359.536l-32.89,0Z" style="fill:#fff;fill-rule:nonzero;"/><path d="M2192.59,2865.6l0,-23.196l49.09,0l-0,-121.778l-89.343,-237.758l-23.563,0l-0,-23.195l97.197,-0l77.562,227.319l44.181,-227.319l74.125,-0l0,23.195l-23.072,0l-83.452,237.758l-0,121.778l49.089,0l0,23.196l-171.814,-0Z" style="fill:#fff;fill-rule:nonzero;"/></g></svg>